<svg xmlns="http://www.w3.org/2000/svg" width="2880" height="1664"><path fill-rule="evenodd" fill="rgba(97, 95, 144, 0.03)" d="M2880 1563.846l-62.574-45.817 62.574 10.52v35.297zm-98.41 99.254l-6.507-45.114 86.154 45.114h-79.647zm-65.162 0l-17.707-78.009 118.705-67.062-42.343 99.957-58.655 45.114zm-16.051-291.449l97.421 63.646 82.202 17.249-62.574 65.483-142.742-69.862 25.693-76.516zm91.082-245.428l88.54 107.237-82.201 201.837-57.813-156.823 51.474-152.251zm-82.051-129.91l114.114-1.434-32.063 131.344-82.051-129.91zm0 0l-74.58-63.688 52.798-101.525-52.798-99.725 74.58-63.688-14.307 87.751 128.421-86.318-33.638 72.366-78.636 89.614 78.636 91.413 33.638 72.366-128.421-86.317 14.307 87.751zm80.476-254.827L2880 806.812l-90.116 115.701-7.77-91.413 7.77-89.614zm1.575-203.709l32.063 131.343-114.114-1.433 82.051-129.91zm-51.474-152.252l57.813-156.822 82.201 201.837-88.54 107.237-51.474-152.252zm-65.301-169.692l142.742-69.863L2880 211.454l-82.202 17.249-97.421 63.646-25.693-76.516zM2550.289 64.027l148.432 14.882-38.97 11.511-109.462-26.393zM2368.906 248.47l181.383-184.443 7.174 91.57-188.557 92.873zm-105.02-46.507L2112.521 34.44l277.056 68.306-20.671 145.724-105.02-46.507zM1983.855 0l128.666 34.44-6.994 145.93L1983.855 0zm-301.122 65.656L1983.855 0l-231.504 198.255-69.618-132.599zm-94.571 226.493L1440.2 72.807l153.126 77.15-5.164 142.192zM1440 276.706l-84.806-22.158L1439.8 72.807l.2-1.459.2 1.459 84.606 181.741L1440 276.706zm-153.326-126.749l153.126-77.15-147.961 219.342-5.165-142.192zm-31.123 84.745l-127.902-36.447 159.025-48.298-31.123 84.745zm-281.028 40.702l-200.05-95.034 353.176 17.885-89.347 193.034-63.779-115.885zm-358.408-73.441l158.358-21.593 140.189 166.95-298.547-145.357zM511.094 248.47l-20.671-145.724L767.478 34.44 616.115 201.963 511.094 248.47zm-188.556-92.873l7.173-91.57L511.094 248.47l-188.556-92.873zM181.279 78.909l148.432-14.882L220.249 90.42l-38.97-11.511zM62.574 145.97l42.343-99.957L255.89 0l-74.611 78.909L62.574 145.97zm117.049 146.379l-97.421-63.646L0 211.454l62.574-65.484 142.743 69.863-25.694 76.516zM88.541 537.777L.001 430.54l82.201-201.837 57.813 156.822-51.474 152.252zm82.051 129.91L56.478 669.12l32.063-131.343 82.051 129.91zm0 0l74.58 63.688-52.797 99.725 52.797 101.525-74.58 63.688 14.307-87.751-128.421 86.317 33.638-72.366 78.636-91.413-78.636-89.614-33.638-72.366 128.421 86.318-14.307-87.751zM90.116 922.513L0 806.812l90.116-65.326 7.771 89.614-7.771 91.413zm-1.575 203.71L56.478 994.879l114.114 1.434-82.051 129.91zm51.474 152.251l-57.813 156.823L.001 1233.46l88.54-107.237 51.474 152.251zm65.302 169.693l-142.743 69.862L0 1452.546l82.202-17.249 97.421-63.646 25.694 76.516zM255.89 1663.1l-150.973-45.114-42.343-99.957 118.705 67.062 74.611 78.009zm-35.641-89.521l109.462 26.393-148.432-14.881 38.97-11.512zm290.845-158.05l-181.383 184.443-7.173-91.57 188.556-92.873zm105.021 46.508l151.363 167.522-277.055-68.305 20.671-145.725 105.021 46.508zm298.547-145.357l-140.189 166.95-158.358-21.593 298.547-145.357zm123.64-43.97l89.347 193.035-353.176 17.885 200.05-95.035 63.779-115.885zm-147.907-24.336l147.907 24.336-123.64 43.97-24.267-68.306zm259.647 121.085l-111.74-96.749 9.841-93.082 101.899 189.831zM1440 1209.441l-289.958 160.018 22.201-137.873L1440 1209.441zm289.958 160.018L1440 1209.441l267.757 22.145 22.201 137.873zm-105.509 59.838l-36.287-57.447 141.796-2.391-105.509 59.838zM1440.2 1591.193l147.962-219.343 5.164 142.193-153.126 77.15zm543.655 71.907l-301.122-64.757 69.618-132.598 231.504 197.355zm128.666-33.541l-128.666 33.541 121.672-179.47 6.994 145.929zm256.385-214.03l20.671 145.725-277.056 68.305 151.365-167.522 105.02-46.508zm188.557 92.873l-7.174 91.57-181.383-184.443 188.557 92.873zm117.221-60.235l-22.942 99.947-94.279-39.712 117.221-60.235zm-93.251-79.791l93.251 79.791-211.721-53.634 118.47-26.157zm-111.489-72.446l230.433 75.721-118.944-3.275-111.489-72.446zm270.041-17.456l-39.608 93.177-62.259-112.275 101.867 19.098zm-80.375-215.539l131.849 63.288-153.341 133.153 21.492-196.441zm-116.2-120.374l-199.44 66.422 206.958-164.986 83.9 88.628 24.782 130.31-116.2-120.374zm-199.44-287.544l199.44 66.422 116.2-120.374-24.782 130.31-83.9 88.628-206.958-164.986zm294.148-250.393l153.341 133.153-131.849 63.288-21.492-196.441zm62.259-112.275l39.608 93.176-101.867 19.099 62.259-112.275zm-118.944 3.275l118.944-3.275-230.433 75.721 111.489-72.446zm-118.47-26.157l211.721-53.634-93.251 79.791-118.47-26.157zm6.981 98.603l-101.038-119.6 94.057 20.997 6.981 98.603zm-169.08-28.698l-36.978-137.409 206.058 166.107-169.08-28.698zM2105.527 180.37l158.359 21.593-298.547 145.357 140.188-166.95zm-263.828 210.919l-89.348-193.034 353.176-17.885-200.05 95.034-63.778 115.885zm-248.373-241.332l159.025 48.298-127.902 36.447-31.123-84.745zm136.632 144.583l-141.796-2.391 36.287-57.447 105.509 59.838zm-438.119-2.391L1440 284.757l148.162 7.392L1440 454.559l-148.161-162.41zm-119.596 140.265l-22.201-137.874L1440 454.559l-267.757-22.145zm-133.941-41.125l111.74-96.749-101.899 189.831-9.841-93.082zm-123.64-43.969l123.64 43.969-147.907 24.336 24.267-68.305zm-335.527-7.948l335.527 7.948-172.358 141.706-163.169-149.654zM410.056 368.07l206.059-166.107-36.98 137.409-169.079 28.698zm6.981-98.603l94.057-20.997-101.038 119.6 6.981-98.603zm-118.47 26.157l-93.25-79.791 211.72 53.634-118.47 26.157zm111.489 72.446l-230.433-75.721 118.944 3.275 111.489 72.446zm-270.041 17.455l39.608-93.176 62.26 112.275-101.868-19.099zm80.375 215.54L88.541 537.777l153.342-133.153-21.493 196.441zm116.2 120.374l199.441-66.422-206.959 135.019-83.9-58.661-24.782-130.31 116.2 120.374zm199.441 287.544L336.59 942.561l-116.2 120.374 24.782-130.31 83.9-58.661 206.959 135.019zm-294.148 250.393L88.541 1126.223l131.849-63.288 21.493 196.441zm-62.26 112.275l-39.608-93.177 101.868-19.098-62.26 112.275zm118.944-3.275l-118.944 3.275 230.433-75.721-111.489 72.446zm118.47 26.157l-211.72 53.634 93.25-79.791 118.47 26.157zm-6.981-98.603l101.038 119.599-94.057-20.996-6.981-98.603zm169.079 28.698l36.98 137.409-206.059-166.107 169.079 28.698zm163.169-149.655l172.358 141.707-335.527 7.948 163.169-149.655zm204.625-128.443l-56.534 201.844-148.091-73.401 204.625-128.443zm-64.58-159.348l94.207 136.779 71.587 155.667-101.214-133.098-92.894-12.318 28.314-147.03zm243.394 231.099l-77.6 61.347 21.191-263.637 56.409 202.29zm46.5 113.305l-46.5-113.305 43.944-117.355 2.556 230.66zM1440 1116.976l122.406-91.714 145.351 206.324L1440 1140.365l-267.757 91.221 145.351-206.324L1440 1116.976zm314.257 1.305l-46.5 113.305 2.556-230.66 43.944 117.355zm87.442 154.429l-111.741 96.749 101.899-189.831 9.842 93.082zm63.778 115.885l200.05 95.035-353.176-17.885 89.348-193.035 63.778 115.885zm358.409 73.442l-158.359 21.593-140.188-166.95 298.547 145.357zm206.058-166.107l-206.058 166.107 36.978-137.409 169.08-28.698zm-133.171-188.46l133.171 188.46-332.249-120.957 199.078-67.503zm301.345 151.906l-168.174 36.554 105.619-106.247 62.555 69.693zm-301.345-151.906l322.837-44.535-84.047 126.748-238.79-82.213zm-75.503-21.671l82.7-76.816-7.197 98.487-75.503-21.671zM2383.857 832l-77.691-112.908 37.804-64.075 37.725 137.206 169.233 27.78 60.336 11.097-60.336 12.897-169.233 27.78-37.725 137.206-37.804-64.075L2383.857 832zm-47.084-275.471l7.197 98.488-82.7-76.816 75.503-21.672zm238.79-82.212l84.047 126.748-322.837-44.536 238.79-82.212zM2469.944 368.07l168.174 36.554-62.555 69.693-105.619-106.247zm-332.249 120.956l332.249-120.956-133.171 188.459-199.078-67.503zM1965.339 347.32l335.525-7.948-163.169 149.654-172.356-141.706zm-123.64 43.969l123.64-43.969 24.267 68.305-147.907-24.336zm-111.741-96.749l111.741 96.749-9.842 93.082-101.899-189.831zM1440 454.559l289.958-160.019-22.201 137.874L1440 454.559zm267.757-22.145l-145.351 206.323L1440 547.024l-122.406 91.713-145.351-206.323L1440 523.634l267.757-91.22zm-582.014 113.305l46.5-113.305-2.556 230.66-43.944-117.355zm-77.6-61.348l77.6 61.348-56.409 202.29-21.191-263.638zM882.349 776.818l-28.314-147.03 92.894-12.318 101.214-133.099-71.587 155.667-94.207 136.78zm-230.915 3.621l90.87-291.413 111.731 140.762-202.601 150.651zM618.73 578.201l123.574-89.175-168.47 230.066 44.896-140.891zM410.056 368.07l332.248 120.956-199.076 67.503L410.056 368.07zm-168.173 36.554l168.173-36.554-105.619 106.247-62.554-69.693zm301.345 151.905L220.39 601.065l84.047-126.748 238.791 82.212zm75.502 21.672l-82.699 76.816 7.197-98.488 75.502 21.672zM496.143 834.624l39.888-179.607 37.803 64.075-77.691 115.532zm-167.071 39.34L268.736 831.1l60.336-41.064 167.071 44.588-167.071 39.34zm244.762 70.944l-37.803 64.075-39.888-174.359 77.691 110.284zm-30.606 162.562l-7.197-98.487 82.699 76.816-75.502 21.671zm-238.791 82.213l-84.047-126.748 322.838 44.535-238.791 82.213zm105.619 106.247l-168.173-36.554 62.554-69.693 105.619 106.247zm332.248-120.957L410.056 1295.93l133.172-188.46 199.076 67.503zm-168.47-230.065l168.47 230.065-123.574-89.174-44.896-140.891zm280.201 89.304l-111.731 140.761-90.87-291.412 202.601 150.651zm28.314-257.394l69.802 54.282-69.802 56.082L805.35 831.1l76.999-54.282zm80.075 54.282l42.683-105.418-28.551-85.644 92.778 107.971-17.967 80.219-.287 2.872.287 4.671 17.967 80.22-92.778 107.97 28.551-85.644L962.424 831.1zm207.263 169.826l-118.32-165.155 199.441 66.422-81.121 98.733zm147.907 24.336l-147.907-24.336 157.748-68.747-9.841 93.083zm122.406 4.321l116.511-120.167-229.076 22.763 225.13-200.359 76.627 29.986v140.387l-72.418 7.196 153.539 91.537-147.907 24.336-5.777-115.858-.068.007L1440 1116.976l-112.565-184.797L1440 1029.583zm388.633-193.812l-118.32 165.155-81.121-98.733 199.441-66.422zm3.224 343.857l-77.6-61.347 56.41-202.29 21.19 263.637zm165.794-292.446l28.314 147.03-92.894 12.318-101.214 133.098 71.588-155.667 94.206-136.779zm-32.312 429.498l-123.64-43.97 147.907-24.336-24.267 68.306zm-32.268-270.15l204.624 128.443-148.089 73.401-56.535-201.844zm295.495-162.969l-90.871 291.412-111.73-140.761 202.601-150.651zM2074.651 831.1l153.915-50.661 77.6-61.347-77.6 112.008 77.6 113.808-77.6-61.347-153.915-52.461zm-48.686-201.312l111.73-140.762 90.871 291.413-202.601-150.651zm-28.314 147.03l-94.206-136.78-71.588-155.667 101.214 133.099 92.894 12.318-28.314 147.03zm-243.394-231.099l77.6-61.348-21.19 263.638-56.41-202.29zm-46.5-113.305l46.5 113.305-43.944 117.355-2.556-230.66zM1552.565 731.82l9.841-93.083 147.907 24.337-157.748 68.746zm276.068 96.408l-199.441-66.422 81.121-98.732 118.32 165.154zm0 0l-17.966-80.219 92.778-107.971-28.552 85.644 42.683 105.418-42.683 107.217 28.552 85.644-92.778-107.97 17.966-80.22.288-4.671-.288-2.872zm169.018-51.41l77 54.282-77 56.082-69.802-56.082 69.802-54.282zm-445.086-44.998h-225.13L1440 563.108l112.565 168.712zm-301.757 170.373l76.627-170.373v200.359l-76.627-29.986zm-81.121-239.119l147.907-24.337 9.841 93.083-157.748-68.746zm-118.32 165.154l118.32-165.154 131.858 126.311-250.178 38.843zm-399.933 55.333l-77.6 61.347L650.361 831.1l-76.527-112.008 77.6 61.347L805.35 831.1l-153.916 52.461zm1338.172-467.936l148.089 73.401-204.624 128.444 56.535-201.845zm271.664 162.576l44.896 140.891-168.471-230.066 123.575 89.175zm0 507.598l-123.575 89.174 168.471-230.065-44.896 140.891zm39.594 238.829l-335.525-7.948 172.356-141.707 163.169 149.655zM349.866 999.036l186.165 9.947-315.641 53.952 129.476-63.899zm0-334.072L220.39 601.065l315.641 53.952-186.165 9.947zm540.529-249.339l56.534 201.845-204.625-128.444 148.091-73.401zm1639.739 249.339l-186.164-9.947 315.64-53.952-129.476 63.899zm0 334.072l129.476 63.899-315.64-53.952 186.164-9.947zm-67.171 395.497l-94.057 20.996 101.038-119.599-6.981 98.603zm-869.637 119.51l31.123-84.746 127.902 36.448-159.025 48.298zm-1373.077 59.536l-14.932-125.412 117.221 60.235-102.289 65.177zm0-1483.159l102.289 65.177-117.221 60.236L220.249 90.42zm1035.302 144.282l36.288 57.447-141.797 2.391 105.509-59.838zm1404.2-144.282l14.933 125.413-117.221-60.236 102.288-65.177zm38.97 1494.671l-148.432 14.881 101.453-51.858 46.979 36.977zm-116.506 78.009l-31.926-63.128 73.821 63.128h-41.895zm-159.413 0l-33.225-101.846 160.712 38.718-127.487 63.128zm-193.163 0l159.938-101.846-2.773 101.846h-157.165zm-141.588 0l24.47-33.541 7.133 33.541h-31.603zm-405.494 0l-80.15-112.964 80.326 48.207-.176 64.757zm-211.905 0l-30.452-71.907 162.207-41.057-131.755 112.964zM1440 1289.45l-148.161 82.4L1440 1209.441l148.162 162.409-148.162-82.4zm-.2 301.743l-312.151-125.448 22.393-96.286 141.797 2.391 147.961 219.343zm-30.452 71.907l-131.755-112.964 162.207 41.057-30.452 71.907zm-211.905 0l-.176-64.757 80.326-48.207-80.15 112.964zm-252.615-56.413l182.821-140.942 69.618 132.598-252.439 8.344zm-13.33 56.413l13.33-56.413 84.626 56.413h-97.956zm-35.354 0h-55.97l-72.696-33.541 6.995-145.929 121.671 179.47zm-135.798 0l7.132-33.541 24.471 33.541h-31.603zm-267.15 0l-2.773-101.846L650.361 1663.1H493.196zm-134.511 0l-28.974-63.128 160.712-38.718L358.685 1663.1zm-60.899 0H255.89l73.821-63.128-31.925 63.128zm-279.023 0l86.154-45.114-6.507 45.114H18.763zM0 1528.549l62.574-10.52L0 1563.847v-35.298zm0-295.087l.001-.002-.001.028v-.026zm0-.002h.001l-.001.001v-.001zm0-.004v-109.173l32.723-19.459L.001 1233.46l-.001-.004zm0-248.052l56.478 9.475-23.755 109.945L0 985.404zm0-84.395l90.116 21.504L0 940.238v-39.229zm0-177.247l90.116 17.724L0 762.991v-39.229zm0-45.166l32.723-119.42L56.478 669.12 0 678.596zm0-138.879V430.543l.001-.003 32.722 128.636L0 539.717zm0-109.178l.001.001H0v-.001zm0-.027l.001.028-.001-.003v-.025zm0-330.359l62.574 45.817L0 135.45v-35.297zM98.41 0l6.507 46.013L18.763 0H98.41zm199.376 0l31.925 64.027L255.89 0h41.896zm60.899 0l131.738 102.746-160.712-38.719L358.685 0zm291.676 0L490.423 102.746 493.196 0h157.165zm141.588 0l-24.471 34.44L760.346 0h31.603zm48.225 0h55.97L774.473 180.37l-6.995-145.93L840.174 0zm104.654 57.313l252.439 8.343-69.618 132.599L944.828 57.313zM1029.454 0l-84.626 57.313L931.498 0h97.956zm167.989 0l80.15 113.864-80.326-48.208.176-65.656zm211.905 0l30.452 72.807-162.207 41.057L1409.348 0zm61.304 0l131.755 113.864L1440.2 72.807 1470.652 0zm211.905 0l.176 65.656-80.326 48.208L1682.557 0zm437.097 0l-7.133 34.44L2088.051 0h31.603zm267.15 0l2.773 102.746L2229.639 0h157.165zm35.998 0l127.487 64.027-160.712 38.719L2422.802 0zm201.308 0l-73.821 64.027L2582.215 0h41.895zm92.318 0l58.655 46.013 42.343 99.957-118.705-67.061L2716.428 0zm144.809 0l-86.154 46.013L2781.59 0h79.647zM2880 135.45l-62.574 10.52L2880 100.153v35.297zm0 295.088l-.001.002.001-.026v.024zm0 .002h-.001l.001-.001v.001zm0 .003v109.174l-32.722 19.459 32.721-128.636.001.003zm0 248.053l-56.478-9.476 23.756-109.944L2880 678.596zm0 84.395l-90.116-21.505L2880 723.762v39.229zm0 177.247l-90.116-17.725L2880 901.009v39.229zm0 45.166l-32.722 119.42-23.756-109.945 56.478-9.475zm0 138.879v109.174l-.001.003-32.721-128.636 32.722 19.459zm0 109.178l-.001-.001h.001v.001zm0 .025l-.001-.026.001.002v.024z"/></svg>